<?xml version="1.0" standalone="no"?><!DOCTYPE svg PUBLIC "-//W3C//DTD SVG 1.1//EN" "http://www.w3.org/Graphics/SVG/1.1/DTD/svg11.dtd"><svg t="1741705427869" class="icon" viewBox="0 0 1429 1024" version="1.1" xmlns="http://www.w3.org/2000/svg" p-id="8242" data-spm-anchor-id="a313x.search_index.0.i2.34973a81PtlFjB" xmlns:xlink="http://www.w3.org/1999/xlink" width="279.1015625" height="200"><path d="M477.4044 664.64595a14.840551 14.840551 0 0 1 0-20.989486l41.815726-41.815726a14.840551 14.840551 0 0 1 20.989486 20.989486l-41.815726 41.815726a14.840551 14.840551 0 0 1-20.989486 0m359.067132 0a14.845498 14.845498 0 0 0 0-20.989486l-41.815726-41.815726a14.840551 14.840551 0 0 0-20.989486 20.989486l41.815726 41.815726a14.840551 14.840551 0 0 0 20.989486 0m149.429509 257.369783h-657.931096a39.574803 39.574803 0 0 1-39.574803-39.574802v44.521653a39.574803 39.574803 0 0 0 39.574803 39.574802h657.931096a39.574803 39.574803 0 0 0 39.574802-39.574802v-44.521653a39.574803 39.574803 0 0 1-39.574802 39.574802m-218.002748-97.947637l-17.40302-30.136212a7.405435 7.405435 0 0 0-12.84697 0l-10.977061 19.010746-10.977061-19.010746a7.420276 7.420276 0 0 0-12.851917 0l-10.977061 19.010746-10.977061-19.010746a7.415329 7.415329 0 0 0-12.851917 0l-10.972114 19.010746-10.982008-19.010746a7.410382 7.410382 0 0 0-12.84697 0l-11.105679 19.228407-11.100733-19.228407a7.425222 7.425222 0 0 0-12.851917 0l-10.977061 19.010746-10.977061-19.010746a7.420276 7.420276 0 0 0-12.851917 0l-17.398072 30.141159a7.415329 7.415329 0 1 0 12.84697 7.420276l10.982008-19.010746 10.972114 19.010746c0.049469 0.084096 0.123671 0.143459 0.17314 0.222608 0.247343 0.395748 0.53426 0.761815 0.855805 1.113041 0.108831 0.108831 0.207768 0.232502 0.321545 0.341333 0.410589 0.385854 0.855805 0.742028 1.365331 1.038839 0.009894 0 0.014841 0 0.024734 0.009893 0.074203 0.044522 0.163246 0.064309 0.247342 0.108831 0.450163 0.237449 0.91022 0.425429 1.385118 0.563941 0.158299 0.044522 0.311652 0.074203 0.469951 0.098937 0.435323 0.098937 0.865699 0.158299 1.301022 0.178087 0.098937 0 0.197874 0.034628 0.296811 0.034628 0.054415 0 0.118724-0.019787 0.183033-0.024735 0.558994-0.014841 1.103148-0.074203 1.637408-0.212714l0.064309-0.009894c0.578781-0.153352 1.122935-0.395748 1.647301-0.677718 0.054415-0.029681 0.108831-0.039575 0.163246-0.069256 0.113778-0.064309 0.202821-0.153352 0.311652-0.227555 0.237449-0.153352 0.469951-0.316598 0.692559-0.494685 0.178087-0.148406 0.34628-0.306705 0.504579-0.469951 0.17314-0.17314 0.34628-0.34628 0.494685-0.53426 0.17314-0.212715 0.321545-0.430376 0.46995-0.652984 0.074203-0.118724 0.17314-0.217661 0.247343-0.336386l10.972114-19.010746 10.982008 19.010746c1.187244 2.062837 3.230293 3.279762 5.426694 3.58152 0.217661 0.034628 0.430376 0.064309 0.648038 0.084096 0.118724 0 0.232502 0.044522 0.351226 0.044522 0.07915 0 0.158299-0.024734 0.232502-0.029681a7.390594 7.390594 0 0 0 6.440799-3.680457l10.982008-19.010746 10.972114 19.010746c0.049469 0.084096 0.118724 0.143459 0.17314 0.222608 0.247343 0.395748 0.529313 0.761815 0.855805 1.113041 0.108831 0.108831 0.207768 0.232502 0.321545 0.341333a7.524159 7.524159 0 0 0 1.385118 1.048732c0.07915 0.044522 0.163246 0.064309 0.247343 0.108831 0.450163 0.237449 0.91022 0.425429 1.390065 0.563941 0.153352 0.044522 0.311652 0.074203 0.469951 0.098937 0.430376 0.098937 0.865699 0.158299 1.301021 0.178087 0.098937 0 0.18798 0.034628 0.286918 0.034628 0.064309 0 0.128618-0.019787 0.197874-0.024735 0.5491-0.014841 1.093254-0.074203 1.63246-0.212714l0.064309-0.009894a7.667618 7.667618 0 0 0 1.642355-0.677718c0.054415-0.029681 0.113778-0.039575 0.168193-0.069256 0.113778-0.069256 0.202821-0.158299 0.316598-0.232502a6.346809 6.346809 0 0 0 1.192191-0.964636 7.049262 7.049262 0 0 0 0.964636-1.187244c0.074203-0.113778 0.168193-0.212715 0.247342-0.331439l10.967167-19.010746 10.982008 19.010746c0.049469 0.084096 0.113778 0.143459 0.168193 0.222608 0.247343 0.395748 0.53426 0.761815 0.855805 1.113041 0.108831 0.108831 0.207768 0.232502 0.321546 0.341333a7.524159 7.524159 0 0 0 1.385118 1.038839c0.479844 0.28197 0.994317 0.474898 1.518683 0.633197 0.712346 0.222608 1.439533 0.36112 2.161773 0.36112h0.014841c0.766762 0 1.533524-0.163246 2.275551-0.405642 0.484791-0.158299 0.964636-0.326492 1.404905-0.583728l0.024735-0.004947c0.509526-0.296811 0.954742-0.652984 1.36533-1.038839 0.113778-0.108831 0.212715-0.227555 0.316599-0.346279 0.326492-0.34628 0.608463-0.712346 0.860752-1.108095 0.049469-0.07915 0.123671-0.138512 0.17314-0.222608l10.982007-19.010746 10.972114 19.010746c0.069256 0.118724 0.163246 0.217661 0.247343 0.331439a6.119254 6.119254 0 0 0 0.954742 1.187244 7.722033 7.722033 0 0 0 1.197138 0.969583c0.108831 0.069256 0.202821 0.158299 0.316598 0.227555 0.049469 0.029681 0.108831 0.039575 0.163246 0.069256 0.524366 0.286917 1.073467 0.524366 1.647301 0.677718a7.816024 7.816024 0 0 0 1.706664 0.227555c0.059362 0 0.123671 0.019787 0.183033 0.019788 0.098937 0 0.183033-0.029681 0.277024-0.034628 0.445217-0.014841 0.890433-0.074203 1.33565-0.17314 0.148406-0.034628 0.296811-0.059362 0.445216-0.098937a7.61815 7.61815 0 0 0 1.419746-0.578782c0.069256-0.039575 0.148406-0.059362 0.212715-0.098937l0.029681-0.009893c0.509526-0.296811 0.949795-0.652984 1.360384-1.038839 0.113778-0.108831 0.212715-0.227555 0.321545-0.346279 0.321545-0.34628 0.608463-0.712346 0.855805-1.108095 0.049469-0.07915 0.128618-0.138512 0.17314-0.222608l10.982008-19.010746 10.972114 19.010746a7.420276 7.420276 0 1 0 12.851917-7.420276" fill="#dbdbdb" p-id="8243" data-spm-anchor-id="a313x.search_index.0.i1.34973a81PtlFjB" class=""></path><path d="M1234.92054 166.206257c-1.078413 0-3.042313 1.132829-5.505844 4.422484-10.749506 14.345866-16.952856 48.963925-8.335443 63.369153 2.760342 4.625305 10.96222 3.947587 15.602366 3.126409a63.987509 63.987509 0 0 0 7.702246-1.879803 92.703975 92.703975 0 0 0 2.191454-36.116954c-4.185035-30.69026-11.046317-32.812458-11.338181-32.886661a1.266394 1.266394 0 0 0-0.316598-0.034628m-88.647558 186.595195a4.94685 4.94685 0 0 1-2.250817-9.349548c0.286917-0.148406 29.211151-15.038425 56.206114-40.465235 19.629102-18.471539 33.168632-37.388295 40.564172-56.591968-0.811283 0.183033-1.607726 0.336386-2.394275 0.474897-15.815081 2.785077-22.765405-2.70098-25.812665-7.791289-11.852653-19.826976-2.765289-58.793316 8.909277-74.380842 6.346809-8.469008 12.322604-9.037896 16.225669-8.033685 9.230823 2.394276 15.157149 15.463854 18.654573 41.123167a100.856385 100.856385 0 0 1-1.043785 33.341772c52.624594-23.235356 136.958499-105.778501 160.421409-227.114847a4.94685 4.94685 0 0 1 9.715614 1.879804c-15.547951 80.406105-54.919933 137.413609-85.214444 171.076925-28.518592 31.69447-61.479456 56.19622-87.974786 66.015718-7.321339 23.146313-22.607106 45.916665-45.441767 67.376101-28.01896 26.327138-57.101494 41.281466-58.328313 41.899823a4.912222 4.912222 0 0 1-2.235976 0.544153M78.26778 935.946064c-1.108094 2.122199-6.213244 12.757927-2.493213 22.34987 2.626778 6.767291 9.260504 11.877388 19.713199 15.201671 1.770972 0.558994 3.729925 0.850858 5.74824 0.766762 3.695297-9.547421 3.086835-21.073582-1.840228-34.38061-0.934955-2.295339-4.847913-9.399016-9.77003-10.235034-3.982215-0.7074-8.310709 2.948323-11.357968 6.297341M9.323527 1019.894114c-2.542681 0-4.150407-0.054415-4.551103-0.069256A4.936957 4.936957 0 0 1 0.003661 1014.699921c0.098937-2.735608 2.275551-4.951797 5.11999-4.763817 0.692559 0.004947 67.128759 2.092518 90.527361-26.218306a26.193573 26.193573 0 0 1-3.165984-0.791496c-13.485114-4.274079-22.226199-11.397543-25.970964-21.137892-5.822443-15.137362 3.032419-30.566588 3.413326-31.214626a4.640146 4.640146 0 0 1 0.568888-0.776655c6.881069-7.771502 13.890756-11.110626 20.846027-9.888754 11.209563 1.954006 16.69562 14.954329 17.279349 16.433437 4.867701 13.143781 6.114307 24.966754 3.759606 35.345246 4.432378-1.825388 9.191248-4.58573 14.138098-8.251347 27.361029-20.267246 57.54671-66.906151 57.126228-101.410432a4.94685 4.94685 0 0 1 9.893701-0.123671c0.465004 38.051173-31.234413 87.336643-61.12823 109.483692-8.681722 6.440799-16.967697 10.477429-24.580899 12.050527-0.81623 1.434587-1.71161 2.819705-2.691087 4.175142-21.726567 30.022435-79.060562 32.278198-95.820491 32.278198m516.372026-894.390542l8.449221-8.44922a9.893701 9.893701 0 1 0-13.989693-13.989693l-8.449221 8.44922-8.44922-8.44922a9.893701 9.893701 0 1 0-13.989693 13.989693l8.449221 8.44922-8.449221 8.449221a9.883807 9.883807 0 0 0 6.994847 16.888547c2.532787 0 5.060628-0.964636 6.994846-2.898855l8.44922-8.44922 8.449221 8.44922c1.929272 1.929272 4.462059 2.898854 6.994846 2.898855a9.893701 9.893701 0 0 0 6.994847-16.888547l-8.449221-8.449221z" fill="#bfbfbf" p-id="8244" data-spm-anchor-id="a313x.search_index.0.i3.34973a81PtlFjB" class=""></path><path d="M140.850384 387.028709l4.590677-4.58573a9.893701 9.893701 0 1 0-13.989693-13.989693l-4.590677 4.58573-4.58573-4.58573a9.883807 9.883807 0 0 0-13.989693 0 9.883807 9.883807 0 0 0 0 13.989693l4.58573 4.58573-4.58573 4.590677a9.883807 9.883807 0 0 0 6.994846 16.888547c2.527841 0 5.060628-0.969583 6.994847-2.898854l4.58573-4.590677 4.590677 4.590677a9.873913 9.873913 0 0 0 13.989693 0 9.893701 9.893701 0 0 0 0-13.989693l-4.590677-4.590677z" fill="#dbdbdb" p-id="8245" data-spm-anchor-id="a313x.search_index.0.i5.34973a81PtlFjB" class=""></path><path d="M1289.894888 863.662687a14.840551 14.840551 0 0 0-19.228407-8.409646l-17.071581 6.678248-6.678248-17.066634a14.840551 14.840551 0 1 0-27.638053 10.823709l6.678248 17.066634-17.066633 6.678248a14.840551 14.840551 0 0 0 10.818761 27.647946l17.066634-6.683195 6.678248 17.066634a14.855392 14.855392 0 0 0 19.238301 8.409646 14.845498 14.845498 0 0 0 8.404699-19.228408l-6.678248-17.07158 17.066633-6.683195a14.840551 14.840551 0 0 0 8.409646-19.228407m-271.83932 63.304843c0 17.729512-14.425016 32.154527-32.154527 32.154528h-657.931096a32.194102 32.194102 0 0 1-32.154527-32.154528v-263.484089l13.010216 9.028001a12.347338 12.347338 0 0 0 17.215039-3.096728 12.372073 12.372073 0 0 0-3.106622-17.215039l-27.118633-18.827712v-90.131614l401.30334-155.528975h254.193905c36.567118 0 66.327369 29.552484 66.742905 66.025612v179.778435l-26.910866 18.689201a12.372073 12.372073 0 0 0 14.113364 20.30682l12.797502-8.88949v263.340632zM653.957489 396.48214l-358.142071 138.798727-11.684461 4.526368c-1.33565-1.919378-2.354701-4.323547-3.15609-7.014634v-46.055176c0.45511-2.903801 0.925061-5.565207 1.375224-7.79129l13.465327-2.98295 358.142071-79.481045z m-375.51541 75.587873a3.759606 3.759606 0 0 0-0.905273 0.34628l-3.759607 0.836018c-9.809604-11.961484-7.167986-32.070431-5.827389-39.198843 0.247343 0.049469 0.469951 0.17314 0.717293 0.17314a3.715085 3.715085 0 0 0 0.702453-0.064309l11.605311-2.24587 14.840551-2.859279 353.600862-68.22696 33.628689 21.588055-387.229551 85.808066-14.840551 3.289655-2.532788 0.558994zM260.109052 415.166394c-4.30376-15.429226 7.578575-37.437763 10.883071-43.121695l9.992637-1.770972 14.840551-2.641618 285.166135-50.710163 59.32263 38.075907-344.493712 65.842578-14.840551 2.834545-12.550159 2.399223c-4.229557-2.621831-6.999793-6.183563-8.320602-10.907805z m35.716259-91.714606c0-17.729512 14.420069-32.154527 32.154528-32.154527h213.100419l30.71994 19.718146-275.979834 49.082649v-36.641321z m840.751844 242.81615a12.367126 12.367126 0 0 0-17.215039-3.101676l-86.421475 60.020136v-168.687597c0-0.257236-0.039575-0.504579-0.039575-0.756868V323.451788c0-25.916549-21.083476-46.995078-46.995079-46.995078h-442.431454a6.841494 6.841494 0 0 0-0.712346 0H327.969945c-25.911602 0-46.995078 21.083476-46.995078 46.995078v31.536171c-9.542474 3.987161-15.444067 11.714142-15.444067 11.714142-0.751921 1.197138-18.417124 29.507962-12.579841 50.443033a25.327874 25.327874 0 0 0 8.271134 12.812342c-0.840965 3.462795-7.529106 33.425868 8.577839 49.978029a3.729925 3.729925 0 0 0 3.462795 1.038839l1.197138-0.26713c-2.750449 14.830657-7.924854 51.946875 5.862017 66.114655 0.18798 0.197874 0.435323 0.296811 0.652985 0.445216v75.795641l-86.253283-59.906357a12.362179 12.362179 0 1 0-14.113364 20.316714l100.371593 69.701121v273.78838c0 25.916549 21.078529 46.995078 46.995079 46.995078h657.931095c25.906655 0 46.995078-21.078529 46.995079-46.995078v-135.692105c0-0.128618 0.034628-0.247343 0.034628-0.385855v-137.596642l100.534839-69.819846a12.367126 12.367126 0 0 0 3.101675-17.205145z" fill="#bfbfbf" p-id="8246" data-spm-anchor-id="a313x.search_index.0.i0.34973a81PtlFjB" class=""></path></svg>