<svg viewBox="0 0 1024 1024" version="1.1" xmlns="http://www.w3.org/2000/svg"
     width="200" height="200">
    <path d="M736 85.33c-111.29 0-182.89 51.39-224 104.94-41.11-53.55-112.71-104.94-224-104.94-169.47 0-266.67 106.53-266.67 292.27 0 183.71 166.69 441.81 475.61 558.32 4.84 1.82 9.95 2.74 15.05 2.74 5.1 0 10.21-0.92 15.05-2.74 308.93-116.51 475.61-374.61 475.61-558.32 0.02-185.74-97.17-292.27-266.65-292.27z m-224 764.9C232.56 738.5 106.67 508.14 106.67 377.6c0-137.31 61.01-206.94 181.33-206.94 146.48 0 181.3 116.75 182.83 122.15 5.05 18.56 21.91 31.46 41.17 31.46 19.35 0 36.28-13.02 41.24-31.73 0.32-1.22 34.04-121.87 182.76-121.87 120.33 0 181.33 69.62 181.33 206.94 0 130.53-125.89 360.89-405.33 472.62z"
          fill="#d81e06"/>
    <path d="M733.56 208.4c-23.27-2.67-44.54 14.2-47.19 37.6-2.65 23.42 14.19 44.54 37.6 47.19 37.04 4.19 66.04 38.21 66.02 77.45-0.02 23.56 19.08 42.68 42.65 42.7h0.02c23.54 0 42.65-19.08 42.67-42.64 0.07-82.02-62.21-153.31-141.77-162.3z"
          fill="#d81e06"/>
</svg>