<?xml version="1.0" standalone="no"?><!--
  - MIT License
  -
  - Copyright (c) 2025 Maverick Young
  -
  - Permission is hereby granted, free of charge, to any person obtaining a copy
  - of this software and associated documentation files (the "Software"), to deal
  - in the Software without restriction, including without limitation the rights
  - to use, copy, modify, merge, publish, distribute, sublicense, and/or sell
  - copies of the Software, and to permit persons to whom the Software is
  - furnished to do so, subject to the following conditions:
  -
  - The above copyright notice and this permission notice shall be included in all
  - copies or substantial portions of the Software.
  -
  - THE SOFTWARE IS PROVIDED "AS IS", WITHOUT WARRANTY OF ANY KIND, EXPRESS OR
  - IMPLIED, INCLUDING BUT NOT LIMITED TO THE WARRANTIES OF MERCHANTABILITY,
  - FITNESS FOR A PARTICULAR PURPOSE AND NONINFRINGEMENT. IN NO EVENT SHALL THE
  - AUTHORS OR COPYRIGHT HOLDERS BE LIABLE FOR ANY CLAIM, DAMAGES OR OTHER
  - LIABILITY, WHETHER IN AN ACTION OF CONTRACT, TORT OR OTHERWISE, ARISING FROM,
  - OUT OF OR IN CONNECTION WITH THE SOFTWARE OR THE USE OR OTHER DEALINGS IN THE
  - SOFTWARE.
  -->

<!DOCTYPE svg PUBLIC "-//W3C//DTD SVG 1.1//EN"
        "http://www.w3.org/Graphics/SVG/1.1/DTD/svg11.dtd">
<svg t="1742018618766" class="icon" viewBox="0 0 1024 1024" version="1.1" xmlns="http://www.w3.org/2000/svg"
     p-id="10498" width="200" height="200">
    <path d="M567.04 692.48c2.56-2.56 4.416-5.76 5.76-9.024 6.4-12.096 4.416-27.52-5.76-37.76L335.36 414.08l229.12-229.12c13.44-13.44 13.44-33.856 0-47.296C558.08 131.2 549.76 128 541.44 128L192 128C121.6 128 64 185.6 64 256l0 576c0 70.4 57.6 128 128 128l96.64 0c9.024 0 17.344-3.2 23.68-9.6L366.08 896l198.464-199.68C565.76 695.04 565.76 693.76 567.04 692.48zM272 896 192 896c-35.2 0-64-28.8-64-64L128 256c0-35.2 28.8-64 64-64l271.36 0L264.96 389.76C254.72 400 252.8 415.36 259.2 427.52 260.48 430.72 262.4 433.92 264.96 436.48 266.24 437.76 266.24 439.04 267.52 440.32l229.76 229.76L272 896zM832 128l-98.56 0c-8.96 0-17.344 3.2-23.68 9.6L655.36 192 456.96 389.76C440.448 407.744 443.52 423.296 459.52 440.32l229.76 229.76L456.96 903.04c-12.8 12.8-12.8 33.856 0 47.296C463.36 956.8 472.32 960 480.64 960L832 960c70.4 0 128-57.6 128-128L960 256C960 185.6 902.4 128 832 128zM896 832c0 35.2-28.8 64-64 64L558.08 896l198.464-199.68c15.232-14.848 14.72-37.376 2.56-50.56L527.36 414.08 749.44 192 832 192c35.2 0 64 28.8 64 64L896 832z"
          p-id="10499" fill="#FFFFFFC0
"></path>
</svg>