<!--
  - MIT License
  -
  - Copyright (c) 2025 Maverick Young
  -
  - Permission is hereby granted, free of charge, to any person obtaining a copy
  - of this software and associated documentation files (the "Software"), to deal
  - in the Software without restriction, including without limitation the rights
  - to use, copy, modify, merge, publish, distribute, sublicense, and/or sell
  - copies of the Software, and to permit persons to whom the Software is
  - furnished to do so, subject to the following conditions:
  -
  - The above copyright notice and this permission notice shall be included in all
  - copies or substantial portions of the Software.
  -
  - THE SOFTWARE IS PROVIDED "AS IS", WITHOUT WARRANTY OF ANY KIND, EXPRESS OR
  - IMPLIED, INCLUDING BUT NOT LIMITED TO THE WARRANTIES OF MERCHANTABILITY,
  - FITNESS FOR A PARTICULAR PURPOSE AND NONINFRINGEMENT. IN NO EVENT SHALL THE
  - AUTHORS OR COPYRIGHT HOLDERS BE LIABLE FOR ANY CLAIM, DAMAGES OR OTHER
  - LIABILITY, WHETHER IN AN ACTION OF CONTRACT, TORT OR OTHERWISE, ARISING FROM,
  - OUT OF OR IN CONNECTION WITH THE SOFTWARE OR THE USE OR OTHER DEALINGS IN THE
  - SOFTWARE.
  -->

<svg class="icon" viewBox="0 0 1024 1024" version="1.1" xmlns="http://www.w3.org/2000/svg"
     width="200" height="200">
    <path d="M768 682.666667l-170.666667 0 0-12.8c145.066667-38.4 256-170.666667 256-328.533333 0-187.733333-153.6-341.333333-341.333333-341.333333S170.666667 153.6 170.666667 341.333333c0 157.866667 110.933333 290.133333 256 328.533333L426.666667 682.666667 256 682.666667c-46.933333 0-85.333333 38.4-85.333333 85.333333 0 46.933333 38.4 85.333333 85.333333 85.333333l170.666667 0 0 85.333333c0 46.933333 38.4 85.333333 85.333333 85.333333s85.333333-38.4 85.333333-85.333333l0-85.333333 170.666667 0c46.933333 0 85.333333-38.4 85.333333-85.333333C853.333333 721.066667 814.933333 682.666667 768 682.666667zM341.333333 341.333333c0-93.866667 76.8-170.666667 170.666667-170.666667s170.666667 76.8 170.666667 170.666667-76.8 170.666667-170.666667 170.666667S341.333333 435.2 341.333333 341.333333z"
          fill="#d4237a"/>
</svg>