<!--
  - MIT License
  -
  - Copyright (c) 2025 Maverick Young
  -
  - Permission is hereby granted, free of charge, to any person obtaining a copy
  - of this software and associated documentation files (the "Software"), to deal
  - in the Software without restriction, including without limitation the rights
  - to use, copy, modify, merge, publish, distribute, sublicense, and/or sell
  - copies of the Software, and to permit persons to whom the Software is
  - furnished to do so, subject to the following conditions:
  -
  - The above copyright notice and this permission notice shall be included in all
  - copies or substantial portions of the Software.
  -
  - THE SOFTWARE IS PROVIDED "AS IS", WITHOUT WARRANTY OF ANY KIND, EXPRESS OR
  - IMPLIED, INCLUDING BUT NOT LIMITED TO THE WARRANTIES OF MERCHANTABILITY,
  - FITNESS FOR A PARTICULAR PURPOSE AND NONINFRINGEMENT. IN NO EVENT SHALL THE
  - AUTHORS OR COPYRIGHT HOLDERS BE LIABLE FOR ANY CLAIM, DAMAGES OR OTHER
  - LIABILITY, WHETHER IN AN ACTION OF CONTRACT, TORT OR OTHERWISE, ARISING FROM,
  - OUT OF OR IN CONNECTION WITH THE SOFTWARE OR THE USE OR OTHER DEALINGS IN THE
  - SOFTWARE.
  -->

<svg class="icon" viewBox="0 0 1024 1024" version="1.1" xmlns="http://www.w3.org/2000/svg"
     width="200" height="200">
    <path d="M938.666667 0 512 0c-46.933333 0-85.333333 38.4-85.333333 85.333333 0 46.933333 38.4 85.333333 85.333333 85.333333l221.866667 0-217.6 217.6C465.066667 358.4 405.333333 341.333333 341.333333 341.333333c-187.733333 0-341.333333 153.6-341.333333 341.333333s153.6 341.333333 341.333333 341.333333 341.333333-153.6 341.333333-341.333333c0-64-17.066667-123.733333-46.933333-174.933333L853.333333 290.133333 853.333333 512c0 46.933333 38.4 85.333333 85.333333 85.333333s85.333333-38.4 85.333333-85.333333L1024 85.333333C1024 38.4 985.6 0 938.666667 0zM341.333333 853.333333c-93.866667 0-170.666667-76.8-170.666667-170.666667s76.8-170.666667 170.666667-170.666667 170.666667 76.8 170.666667 170.666667S435.2 853.333333 341.333333 853.333333z"
          fill="#1296db"/>
</svg>